<svg width="800" height="156" fill="none" xmlns="http://www.w3.org/2000/svg"><path d="M625.692 54.971h-18.934v66.549h18.934V54.971zM625.692 33.038h-18.934v14.715h18.934V33.038zM212.755 33.038h-19.791v88.482h60.433v-16.964h-40.642V33.038zM292.509 49.435c-21.066 0-37.74 16.257-37.74 36.744s16.674 36.787 37.74 36.787c21.065 0 37.879-16.257 37.879-36.755s-16.685-36.776-37.879-36.776zm0 55.968c-10.603 0-18.517-8.054-18.517-19.278 0-11.223 7.914-19.212 18.517-19.212 10.602 0 18.516 8.192 18.516 19.213 0 11.02-7.914 19.277-18.516 19.277zM409.799 106.538c-3.395 0-6.361-1.981-6.361-8.053V70.221h18.056v-15.25h-18.056V35.79h-18.935v19.18h-24.867v-19.18h-18.935v19.18h-10.313v15.251h10.313v28.54c0 15.969 7.637 24.172 21.762 24.172a32.534 32.534 0 0 0 17.949-5.355l-5.355-13.986a17.368 17.368 0 0 1-9.049 2.966c-3.395 0-6.362-1.981-6.362-8.053V70.222h24.868v28.54c0 15.969 7.625 24.172 21.762 24.172a32.572 32.572 0 0 0 17.949-5.355l-5.355-13.986a17.316 17.316 0 0 1-9.071 2.945zM529.51 81.2c-2.891-19.867-20.209-33.918-39.24-31.144a36.279 36.279 0 0 0-24.217 14.31 36.287 36.287 0 0 0-6.712 27.318c3.353 23.079 23.197 33.767 43.609 30.79a47.624 47.624 0 0 0 24.9-11.47l-8.953-12.413a35.097 35.097 0 0 1-18.078 8.204c-9.231 1.339-17.874-2.142-21.515-11.438l50.763-7.39a61.092 61.092 0 0 0-.557-6.768zm-52.305 1.745c.535-9.071 6.682-15.968 14.789-17.135a17.135 17.135 0 0 1 19.096 12.176l-33.885 4.959zM735.057 81.2c-2.891-19.867-20.219-33.918-39.239-31.144a36.27 36.27 0 0 0-30.331 27.291 36.279 36.279 0 0 0-.599 14.337c3.353 23.079 23.187 33.767 43.61 30.79a47.586 47.586 0 0 0 24.888-11.47l-8.942-12.413a35.128 35.128 0 0 1-18.088 8.204c-9.232 1.339-17.874-2.142-21.515-11.438l50.773-7.39a64.158 64.158 0 0 0-.557-6.768zm-52.305 1.745c.536-9.071 6.672-15.968 14.79-17.135a17.072 17.072 0 0 1 19.052 12.176l-33.842 4.959zM656.782 33.038h-18.935v88.472h18.935V33.038zM774.265 77.28c-6.5-1.414-12.434-2.689-12.434-6.64 0-2.967 4.102-4.948 8.482-4.948a44.255 44.255 0 0 1 19.642 4.948l6.361-14.137a48.193 48.193 0 0 0-26.292-7.068c-13.28 0-27.416 7.636-27.416 22.05 0 13.57 11.448 18.207 25.445 21.901 6.073 1.703 12.156 2.689 12.156 6.93 0 4.24-7.208 5.933-11.599 5.933a34.2 34.2 0 0 1-22.04-7.497l-6.79 14.576c3.963 3.673 13.709 9.638 28.83 9.638 13.152 0 30.812-5.794 30.812-23.186 0-14.447-13.098-19.652-25.157-22.5zM450.774 54.971h-18.935v66.549h18.935V54.971zM450.774 33.038h-18.935v14.715h18.935V33.038zM537.574 121.52h19.749V85.365h33.488V68.583h-33.488V49.97h40.685V33.038h-60.434v88.482z" fill="#000"/><path d="M116.509 0H39.465C17.669 0 0 17.669 0 39.465v77.044c0 21.795 17.669 39.464 39.465 39.464h77.044c21.795 0 39.464-17.669 39.464-39.464V39.465C155.973 17.669 138.304 0 116.509 0z" fill="#00DDB3"/><path d="M118.543 34.934c-26.848 0-36.797 19.17-44.797 34.57l-5.227 9.853c-8.47 16.332-14.8 26.26-31.11 26.26a7.702 7.702 0 0 0-5.453 2.258 7.708 7.708 0 0 0 .003 10.902 7.725 7.725 0 0 0 5.45 2.262c26.859 0 36.808-19.171 44.808-34.57l5.216-9.853c8.481-16.333 14.811-26.26 31.11-26.26a7.705 7.705 0 0 0 5.46-2.255 7.71 7.71 0 0 0 2.262-5.456 7.725 7.725 0 0 0-7.722-7.71z" fill="#fff"/></svg>